<mxfile host="Electron" modified="2024-04-19T09:08:47.795Z" agent="Mozilla/5.0 (Windows NT 10.0; Win64; x64) AppleWebKit/537.36 (KHTML, like Gecko) draw.io/24.2.5 Chrome/120.0.6099.109 Electron/28.1.0 Safari/537.36" etag="V1BzPrzVU6C6IA-h0nB2" version="24.2.5" type="device">
  <diagram name="Page-1" id="1TxyFtOKqhtP1Yt1a0d7">
    <mxGraphModel dx="1036" dy="614" grid="1" gridSize="10" guides="1" tooltips="1" connect="1" arrows="1" fold="1" page="1" pageScale="1" pageWidth="850" pageHeight="1100" math="0" shadow="0">
      <root>
        <mxCell id="0" />
        <mxCell id="1" parent="0" />
        <mxCell id="yr_H_1cGtXi4QchuGe8h-1" value="AWS Cloud" style="sketch=0;outlineConnect=0;gradientColor=none;html=1;whiteSpace=wrap;fontSize=12;fontStyle=0;shape=mxgraph.aws4.group;grIcon=mxgraph.aws4.group_aws_cloud;strokeColor=#858B94;fillColor=none;verticalAlign=top;align=left;spacingLeft=30;fontColor=#858B94;dashed=0;" vertex="1" parent="1">
          <mxGeometry x="200" y="40" width="640" height="560" as="geometry" />
        </mxCell>
        <mxCell id="yr_H_1cGtXi4QchuGe8h-2" value="" style="shape=mxgraph.cisco.computers_and_peripherals.web_browser;html=1;pointerEvents=1;dashed=0;fillColor=#036897;strokeColor=#ffffff;strokeWidth=2;verticalLabelPosition=bottom;verticalAlign=top;align=center;outlineConnect=0;" vertex="1" parent="1">
          <mxGeometry x="70" y="313" width="62" height="64" as="geometry" />
        </mxCell>
        <mxCell id="yr_H_1cGtXi4QchuGe8h-4" value="" style="sketch=0;outlineConnect=0;fontColor=#232F3E;gradientColor=none;fillColor=#ED7100;strokeColor=none;dashed=0;verticalLabelPosition=bottom;verticalAlign=top;align=center;html=1;fontSize=12;fontStyle=0;aspect=fixed;pointerEvents=1;shape=mxgraph.aws4.lambda_function;" vertex="1" parent="1">
          <mxGeometry x="540" y="448" width="48" height="48" as="geometry" />
        </mxCell>
        <mxCell id="yr_H_1cGtXi4QchuGe8h-5" value="" style="sketch=0;outlineConnect=0;fontColor=#232F3E;gradientColor=none;fillColor=#ED7100;strokeColor=none;dashed=0;verticalLabelPosition=bottom;verticalAlign=top;align=center;html=1;fontSize=12;fontStyle=0;aspect=fixed;pointerEvents=1;shape=mxgraph.aws4.lambda_function;direction=south;" vertex="1" parent="1">
          <mxGeometry x="540" y="286" width="48" height="48" as="geometry" />
        </mxCell>
        <mxCell id="yr_H_1cGtXi4QchuGe8h-6" value="" style="sketch=0;outlineConnect=0;fontColor=#232F3E;gradientColor=none;fillColor=#ED7100;strokeColor=none;dashed=0;verticalLabelPosition=bottom;verticalAlign=top;align=center;html=1;fontSize=12;fontStyle=0;aspect=fixed;pointerEvents=1;shape=mxgraph.aws4.lambda_function;" vertex="1" parent="1">
          <mxGeometry x="540" y="368" width="48" height="48" as="geometry" />
        </mxCell>
        <mxCell id="yr_H_1cGtXi4QchuGe8h-7" value="Amazon S3" style="sketch=0;outlineConnect=0;fontColor=#232F3E;gradientColor=none;strokeColor=#ffffff;fillColor=#232F3E;dashed=0;verticalLabelPosition=middle;verticalAlign=bottom;align=center;html=1;whiteSpace=wrap;fontSize=10;fontStyle=1;spacing=3;shape=mxgraph.aws4.productIcon;prIcon=mxgraph.aws4.s3;" vertex="1" parent="1">
          <mxGeometry x="510" y="60" width="66" height="80" as="geometry" />
        </mxCell>
        <mxCell id="yr_H_1cGtXi4QchuGe8h-8" value="Amazon DynamoDB" style="sketch=0;outlineConnect=0;fontColor=#232F3E;gradientColor=none;strokeColor=#ffffff;fillColor=#232F3E;dashed=0;verticalLabelPosition=middle;verticalAlign=bottom;align=center;html=1;whiteSpace=wrap;fontSize=10;fontStyle=1;spacing=3;shape=mxgraph.aws4.productIcon;prIcon=mxgraph.aws4.dynamodb;" vertex="1" parent="1">
          <mxGeometry x="750" y="300" width="80" height="110" as="geometry" />
        </mxCell>
        <mxCell id="yr_H_1cGtXi4QchuGe8h-9" value="" style="sketch=0;outlineConnect=0;fontColor=#232F3E;gradientColor=none;fillColor=#ED7100;strokeColor=none;dashed=0;verticalLabelPosition=bottom;verticalAlign=top;align=center;html=1;fontSize=12;fontStyle=0;aspect=fixed;pointerEvents=1;shape=mxgraph.aws4.lambda_function;direction=south;" vertex="1" parent="1">
          <mxGeometry x="540" y="200" width="48" height="48" as="geometry" />
        </mxCell>
        <mxCell id="yr_H_1cGtXi4QchuGe8h-16" value="" style="endArrow=classic;startArrow=classic;html=1;rounded=0;" edge="1" parent="1" source="yr_H_1cGtXi4QchuGe8h-2" target="yr_H_1cGtXi4QchuGe8h-7">
          <mxGeometry width="50" height="50" relative="1" as="geometry">
            <mxPoint x="400" y="340" as="sourcePoint" />
            <mxPoint x="450" y="290" as="targetPoint" />
            <Array as="points">
              <mxPoint x="100" y="100" />
            </Array>
          </mxGeometry>
        </mxCell>
        <mxCell id="yr_H_1cGtXi4QchuGe8h-17" value="Amazon API Gateway" style="sketch=0;outlineConnect=0;fontColor=#232F3E;gradientColor=none;strokeColor=#ffffff;fillColor=#232F3E;dashed=0;verticalLabelPosition=middle;verticalAlign=bottom;align=center;html=1;whiteSpace=wrap;fontSize=10;fontStyle=1;spacing=3;shape=mxgraph.aws4.productIcon;prIcon=mxgraph.aws4.api_gateway;" vertex="1" parent="1">
          <mxGeometry x="330" y="286" width="70" height="120" as="geometry" />
        </mxCell>
        <mxCell id="yr_H_1cGtXi4QchuGe8h-18" value="" style="endArrow=classic;startArrow=classic;html=1;rounded=0;" edge="1" parent="1" source="yr_H_1cGtXi4QchuGe8h-17" target="yr_H_1cGtXi4QchuGe8h-2">
          <mxGeometry width="50" height="50" relative="1" as="geometry">
            <mxPoint x="320" y="340" as="sourcePoint" />
            <mxPoint x="450" y="290" as="targetPoint" />
          </mxGeometry>
        </mxCell>
        <mxCell id="yr_H_1cGtXi4QchuGe8h-19" value="" style="endArrow=classic;startArrow=classic;html=1;rounded=0;" edge="1" parent="1" source="yr_H_1cGtXi4QchuGe8h-17" target="yr_H_1cGtXi4QchuGe8h-9">
          <mxGeometry width="50" height="50" relative="1" as="geometry">
            <mxPoint x="400" y="340" as="sourcePoint" />
            <mxPoint x="450" y="290" as="targetPoint" />
            <Array as="points">
              <mxPoint x="470" y="346" />
              <mxPoint x="470" y="224" />
            </Array>
          </mxGeometry>
        </mxCell>
        <mxCell id="yr_H_1cGtXi4QchuGe8h-21" value="" style="endArrow=classic;html=1;rounded=0;" edge="1" parent="1" target="yr_H_1cGtXi4QchuGe8h-5">
          <mxGeometry width="50" height="50" relative="1" as="geometry">
            <mxPoint x="470" y="310" as="sourcePoint" />
            <mxPoint x="450" y="290" as="targetPoint" />
          </mxGeometry>
        </mxCell>
        <mxCell id="yr_H_1cGtXi4QchuGe8h-22" value="" style="endArrow=classic;html=1;rounded=0;" edge="1" parent="1" target="yr_H_1cGtXi4QchuGe8h-6">
          <mxGeometry width="50" height="50" relative="1" as="geometry">
            <mxPoint x="470" y="340" as="sourcePoint" />
            <mxPoint x="450" y="290" as="targetPoint" />
            <Array as="points">
              <mxPoint x="470" y="392" />
            </Array>
          </mxGeometry>
        </mxCell>
        <mxCell id="yr_H_1cGtXi4QchuGe8h-23" value="" style="endArrow=classic;html=1;rounded=0;" edge="1" parent="1" target="yr_H_1cGtXi4QchuGe8h-4">
          <mxGeometry width="50" height="50" relative="1" as="geometry">
            <mxPoint x="470" y="390" as="sourcePoint" />
            <mxPoint x="450" y="290" as="targetPoint" />
            <Array as="points">
              <mxPoint x="470" y="470" />
            </Array>
          </mxGeometry>
        </mxCell>
        <mxCell id="yr_H_1cGtXi4QchuGe8h-24" value="" style="endArrow=classic;startArrow=classic;html=1;rounded=0;" edge="1" parent="1" source="yr_H_1cGtXi4QchuGe8h-8" target="yr_H_1cGtXi4QchuGe8h-4">
          <mxGeometry width="50" height="50" relative="1" as="geometry">
            <mxPoint x="740" y="355" as="sourcePoint" />
            <mxPoint x="600" y="471" as="targetPoint" />
            <Array as="points">
              <mxPoint x="670" y="355" />
              <mxPoint x="670" y="471" />
            </Array>
          </mxGeometry>
        </mxCell>
        <mxCell id="yr_H_1cGtXi4QchuGe8h-25" value="" style="endArrow=classic;html=1;rounded=0;" edge="1" parent="1" target="yr_H_1cGtXi4QchuGe8h-6">
          <mxGeometry width="50" height="50" relative="1" as="geometry">
            <mxPoint x="670" y="390" as="sourcePoint" />
            <mxPoint x="600" y="385" as="targetPoint" />
          </mxGeometry>
        </mxCell>
        <mxCell id="yr_H_1cGtXi4QchuGe8h-26" value="" style="endArrow=classic;html=1;rounded=0;" edge="1" parent="1" target="yr_H_1cGtXi4QchuGe8h-5">
          <mxGeometry width="50" height="50" relative="1" as="geometry">
            <mxPoint x="670" y="355" as="sourcePoint" />
            <mxPoint x="600" y="303" as="targetPoint" />
            <Array as="points">
              <mxPoint x="670" y="310" />
            </Array>
          </mxGeometry>
        </mxCell>
        <mxCell id="yr_H_1cGtXi4QchuGe8h-27" value="" style="endArrow=classic;html=1;rounded=0;entryX=0.5;entryY=-0.042;entryDx=0;entryDy=0;entryPerimeter=0;" edge="1" parent="1" target="yr_H_1cGtXi4QchuGe8h-9">
          <mxGeometry width="50" height="50" relative="1" as="geometry">
            <mxPoint x="670" y="320" as="sourcePoint" />
            <mxPoint x="600" y="224" as="targetPoint" />
            <Array as="points">
              <mxPoint x="670" y="225" />
            </Array>
          </mxGeometry>
        </mxCell>
      </root>
    </mxGraphModel>
  </diagram>
</mxfile>
